<svg width="56" height="56" viewBox="0 0 56 56" fill="none" xmlns="http://www.w3.org/2000/svg">
<path fill-rule="evenodd" clip-rule="evenodd" d="M38.9999 17H16.9999V39H38.9999V17ZM15.9999 16V40H39.9999V16H15.9999Z" fill="#0045E6"/>
<path fill-rule="evenodd" clip-rule="evenodd" d="M20 11H12C11.4477 11 11 11.4477 11 12V20C11 20.5523 11.4477 21 12 21H20C20.5523 21 21 20.5523 21 20V12C21 11.4477 20.5523 11 20 11ZM12 10C10.8954 10 10 10.8954 10 12V20C10 21.1046 10.8954 22 12 22H20C21.1046 22 22 21.1046 22 20V12C22 10.8954 21.1046 10 20 10H12Z" fill="#0045E6"/>
<path fill-rule="evenodd" clip-rule="evenodd" d="M43.9999 11H35.9999C35.4476 11 34.9999 11.4477 34.9999 12V20C34.9999 20.5523 35.4476 21 35.9999 21H43.9999C44.5521 21 44.9999 20.5523 44.9999 20V12C44.9999 11.4477 44.5521 11 43.9999 11ZM35.9999 10C34.8953 10 33.9999 10.8954 33.9999 12V20C33.9999 21.1046 34.8953 22 35.9999 22H43.9999C45.1044 22 45.9999 21.1046 45.9999 20V12C45.9999 10.8954 45.1044 10 43.9999 10H35.9999Z" fill="#0045E6"/>
<path fill-rule="evenodd" clip-rule="evenodd" d="M32 23H24C23.4477 23 23 23.4477 23 24V32C23 32.5523 23.4477 33 24 33H32C32.5523 33 33 32.5523 33 32V24C33 23.4477 32.5523 23 32 23ZM24 22C22.8954 22 22 22.8954 22 24V32C22 33.1046 22.8954 34 24 34H32C33.1046 34 34 33.1046 34 32V24C34 22.8954 33.1046 22 32 22H24Z" fill="#0045E6"/>
<path fill-rule="evenodd" clip-rule="evenodd" d="M20 35H12C11.4477 35 11 35.4477 11 36V44C11 44.5522 11.4477 45 12 45H20C20.5523 45 21 44.5522 21 44V36C21 35.4477 20.5523 35 20 35ZM12 34C10.8954 34 10 34.8954 10 36V44C10 45.1045 10.8954 46 12 46H20C21.1046 46 22 45.1045 22 44V36C22 34.8954 21.1046 34 20 34H12Z" fill="#0045E6"/>
<path fill-rule="evenodd" clip-rule="evenodd" d="M44 35H36C35.4477 35 35 35.4477 35 36V44C35 44.5523 35.4477 45 36 45H44C44.5523 45 45 44.5523 45 44V36C45 35.4477 44.5523 35 44 35ZM36 34C34.8954 34 34 34.8954 34 36V44C34 45.1046 34.8954 46 36 46H44C45.1046 46 46 45.1046 46 44V36C46 34.8954 45.1046 34 44 34H36Z" fill="#0045E6"/>
</svg>
