<svg width="56" height="56" viewBox="0 0 56 56" fill="none" xmlns="http://www.w3.org/2000/svg">
<rect x="21.5" y="26.5156" width="10" height="4" rx="2" transform="rotate(-180 21.5 26.5156)" stroke="#0045E6"/>
<path fillRule="evenodd" clipRule="evenodd" d="M16 21.5156C16 20.1349 17.1193 19.0156 18.5 19.0156H31V20.0156H18.5C17.6716 20.0156 17 20.6872 17 21.5156V23.0156H16V21.5156ZM21.5 24.0095H31V25.0095H21.5V24.0095ZM17 26.0156V27.5156C17 28.3441 17.6716 29.0156 18.5 29.0156H31V30.0156H18.5C17.1193 30.0156 16 28.8963 16 27.5156V26.0156H17Z" fill="#0045E6"/>
<path d="M24 19.5C24 18.6716 24.6716 18 25.5 18C26.3284 18 27 18.6716 27 19.5C27 20.3284 26.3284 21 25.5 21C24.6716 21 24 20.3284 24 19.5Z" fill="#0045E6"/>
<path d="M26 29.5C26 28.6716 26.6716 28 27.5 28C28.3284 28 29 28.6716 29 29.5C29 30.3284 28.3284 31 27.5 31C26.6716 31 26 30.3284 26 29.5Z" fill="#0045E6"/>
<path fillRule="evenodd" clipRule="evenodd" d="M17.957 47.0137H37.957V48.0137H17.957V47.0137Z" fill="#0045E6"/>
<path fillRule="evenodd" clipRule="evenodd" d="M28 38V47H27V38H28Z" fill="#0045E6"/>
<path fillRule="evenodd" clipRule="evenodd" d="M45 47H34C32.8954 47 32 46.1046 32 45V11C32 9.89543 32.8954 9 34 9H45C46.1046 9 47 9.89543 47 11V45C47 46.1046 46.1046 47 45 47ZM34 48C32.3431 48 31 46.6569 31 45V11C31 9.34315 32.3431 8 34 8H45C46.6569 8 48 9.34315 48 11V45C48 46.6569 46.6569 48 45 48H34Z" fill="#0045E6"/>
<path fillRule="evenodd" clipRule="evenodd" d="M37 38.5C37 39.8807 38.1193 41 39.5 41C40.8807 41 42 39.8807 42 38.5C42 37.1193 40.8807 36 39.5 36C38.1193 36 37 37.1193 37 38.5ZM39.5 35C37.567 35 36 36.567 36 38.5C36 40.433 37.567 42 39.5 42C41.433 42 43 40.433 43 38.5C43 36.567 41.433 35 39.5 35Z" fill="#0045E6"/>
<path fillRule="evenodd" clipRule="evenodd" d="M44 15H35V14H44V15Z" fill="#0045E6"/>
<path fillRule="evenodd" clipRule="evenodd" d="M44 18H35V17H44V18ZM44 21H35V20H44V21Z" fill="#0045E6"/>
<path fillRule="evenodd" clipRule="evenodd" d="M31 37H11C9.89543 37 9 36.1046 9 35V15C9 13.8954 9.89543 13 11 13H31V37ZM11 38C9.34315 38 8 36.6569 8 35V15C8 13.3431 9.34315 12 11 12H32V38H11Z" fill="#0045E6"/>
<path d="M9 14H31V15H9V14Z" fill="#0045E6"/>
<path d="M9 35H31V36H9V35Z" fill="#0045E6"/>
</svg>
