<svg width="56" height="56" viewBox="0 0 56 56" fill="none" xmlns="http://www.w3.org/2000/svg">
<path fill-rule="evenodd" clip-rule="evenodd" d="M37 37.5V18.5C37 13.2533 32.7467 9 27.5 9C22.2533 9 18 13.2533 18 18.5V37.5C18 42.7467 22.2533 47 27.5 47C32.7467 47 37 42.7467 37 37.5ZM27.5 8C21.701 8 17 12.701 17 18.5V37.5C17 43.299 21.701 48 27.5 48C33.299 48 38 43.299 38 37.5V18.5C38 12.701 33.299 8 27.5 8Z" fill="#0045E6"/>
<path fill-rule="evenodd" clip-rule="evenodd" d="M44.7722 18.5068C42.2417 14.2019 36.6215 12.7136 32.2198 15.2096L14.5856 25.2096C10.1941 27.6999 8.70369 33.1992 11.2278 37.4933C13.7583 41.7982 19.3785 43.2865 23.7802 40.7904L41.4144 30.7904C45.8059 28.3001 47.2963 22.8009 44.7722 18.5068ZM45.6343 18C42.8228 13.2171 36.5961 11.5783 31.7266 14.3398L14.0923 24.3398C9.22271 27.1012 7.55427 33.2171 10.3657 38C13.1772 42.7829 19.4039 44.4217 24.2734 41.6603L41.9077 31.6603C46.7773 28.8989 48.4457 22.7829 45.6343 18Z" fill="#0045E6"/>
<path fill-rule="evenodd" clip-rule="evenodd" d="M44.7722 37.4933C47.2963 33.1992 45.8059 27.7 41.4144 25.2097L23.7802 15.2097C19.3785 12.7136 13.7583 14.2019 11.2278 18.5068C8.70369 22.8009 10.1941 28.3002 14.5856 30.7905L32.2198 40.7905C36.6215 43.2865 42.2417 41.7983 44.7722 37.4933ZM45.6343 38.0001C48.4457 33.2172 46.7773 27.1013 41.9077 24.3398L24.2734 14.3398C19.4039 11.5784 13.1772 13.2172 10.3657 18.0001C7.55427 22.783 9.22271 28.8989 14.0923 31.6603L31.7266 41.6603C36.5961 44.4218 42.8228 42.783 45.6343 38.0001Z" fill="#0045E6"/>
</svg>
