<!DOCTYPE svg PUBLIC "-//W3C//DTD SVG 1.1//EN" "http://www.w3.org/Graphics/SVG/1.1/DTD/svg11.dtd">
<!-- Uploaded to: SVG Repo, www.svgrepo.com, Transformed by: SVG Repo Mixer Tools -->
<svg fill="#9bbff8" version="1.1" id="Capa_1" xmlns="http://www.w3.org/2000/svg" xmlns:xlink="http://www.w3.org/1999/xlink" width="800px" height="800px" viewBox="0 0 74.086 74.086" xml:space="preserve">
<g id="SVGRepo_bgCarrier" stroke-width="0"/>
<g id="SVGRepo_tracerCarrier" stroke-linecap="round" stroke-linejoin="round"/>
<g id="SVGRepo_iconCarrier"> <g> <g> <path d="M16.581,29.782c0,1.724-1.402,3.126-3.126,3.126c-0.276,0-0.5,0.224-0.5,0.5v2.429c0,0.275,0.224,0.5,0.5,0.5 s0.5-0.225,0.5-0.5v-1.979c2.038-0.25,3.626-1.972,3.626-4.076c0-2.275-1.851-4.126-4.126-4.126s-4.126,1.851-4.126,4.126 c0,0.276,0.224,0.5,0.5,0.5c0.276,0,0.5-0.224,0.5-0.5c0-1.724,1.402-3.126,3.126-3.126S16.581,28.059,16.581,29.782z"/> <path d="M13.455,36.799c-0.276,0-0.5,0.251-0.5,0.528c0,0.273,0.224,0.5,0.5,0.5s0.5-0.227,0.5-0.5v-0.059 C13.955,36.993,13.732,36.799,13.455,36.799z"/> <path d="M0.5,56.659c-0.276,0-0.5,0.225-0.5,0.5c0,0.273,0.224,0.5,0.5,0.5h11.782h2.347H35.94h2.347h21.17h2.348h11.781 c0.275,0,0.5-0.227,0.5-0.5c0-0.275-0.225-0.5-0.5-0.5H62.303V45.127h11.282c0.276,0,0.5-0.226,0.5-0.5V24.349 c0-0.276-0.224-0.5-0.5-0.5H50.568v-6.922c0-0.276-0.226-0.5-0.5-0.5H24.157c-0.276,0-0.5,0.224-0.5,0.5v4.341H0.5 c-0.276,0-0.5,0.224-0.5,0.5v20.278c0,0.273,0.224,0.5,0.5,0.5h11.282v14.113H0.5z M26.411,42.546c0.276,0,0.5-0.227,0.5-0.5 v-4.342h8.528v18.955h-20.31V42.546H26.411z M36.439,56.659V37.704h1.348v18.955H36.439z M47.174,37.704v6.923 c0,0.274,0.225,0.5,0.5,0.5h11.281v11.532h-20.17V37.704H47.174z M61.303,56.659h-1.348V45.127h1.348V56.659z M73.085,24.849 v19.278H61.803h-2.348H48.174v-6.423h1.895c0.276,0,0.5-0.223,0.5-0.5V24.849H73.085z M48.174,36.704V24.849h1.395v11.855H48.174 L48.174,36.704z M24.657,17.427h24.912v6.422h-1.896c-0.276,0-0.5,0.224-0.5,0.5v12.355h-8.888h-2.347h-9.027V21.768 c0-0.276-0.224-0.5-0.5-0.5h-1.754V17.427z M24.657,22.268h1.254v14.437h-1.254V22.268z M1,22.268h22.657v14.937 c0,0.276,0.224,0.5,0.5,0.5h1.754v3.843H14.629h-2.347H1V22.268z M12.782,42.546h1.347v14.113h-1.347V42.546z"/> <path d="M60.677,38.591c0.276,0,0.5-0.225,0.5-0.5V28.41c0-0.276-0.224-0.5-0.5-0.5s-0.5,0.224-0.5,0.5v9.681 C60.177,38.366,60.4,38.591,60.677,38.591z"/> <path d="M60.677,40.269c0.276,0,0.5-0.225,0.5-0.5v-0.057c0-0.275-0.224-0.475-0.5-0.475s-0.5,0.254-0.5,0.527 C60.177,40.043,60.4,40.269,60.677,40.269z"/> <path d="M37.266,33.75c3.686,0,6.686-2.999,6.686-6.684c0-1.839-0.748-3.507-1.952-4.717c-0.005-0.003-0.005-0.006-0.007-0.009 c-0.005-0.003-0.007-0.003-0.011-0.006c-1.209-1.206-2.877-1.953-4.716-1.953c-3.686,0-6.685,2.999-6.685,6.685 S33.58,33.75,37.266,33.75z M37.266,32.75c-1.388,0-2.659-0.501-3.647-1.33l4-4.001l4.002-4.001c0.828,0.988,1.33,2.26,1.33,3.647 C42.949,30.2,40.4,32.75,37.266,32.75z M37.266,21.382c1.388,0,2.659,0.501,3.646,1.33l-4,4.001l-4.001,4.001 c-0.829-0.988-1.33-2.26-1.33-3.647C31.581,23.932,34.131,21.382,37.266,21.382z"/> </g> </g> </g>
</svg>