<svg width="56" height="56" viewBox="0 0 56 56" fill="none" xmlns="http://www.w3.org/2000/svg">
<path fillRule="evenodd" clipRule="evenodd" d="M43 47.0063H18C17.4477 47.0063 17 46.5586 17 46.0063V33.0063C17 32.4541 17.4477 32.0063 18 32.0063H43C43.5523 32.0063 44 32.4541 44 33.0063V46.0063C44 46.5586 43.5523 47.0063 43 47.0063ZM18 48.0063C16.8954 48.0063 16 47.1109 16 46.0063V33.0063C16 31.9018 16.8954 31.0063 18 31.0063H43C44.1046 31.0063 45 31.9018 45 33.0063V46.0063C45 47.1109 44.1046 48.0063 43 48.0063H18Z" fill="#0045E6"/>
<path fillRule="evenodd" clipRule="evenodd" d="M23.9999 34.0055L17.9999 34.0061L17.9998 33.0061L23.9998 33.0055L23.9999 34.0055Z" fill="#0045E6"/>
<path fillRule="evenodd" clipRule="evenodd" d="M34 35H28C26.8954 35 26 35.8954 26 37V43C26 44.1046 26.8954 45 28 45H34C35.1046 45 36 44.1046 36 43V37C36 35.8954 35.1046 35 34 35ZM28 34C26.3431 34 25 35.3431 25 37V43C25 44.6569 26.3431 46 28 46H34C35.6569 46 37 44.6569 37 43V37C37 35.3431 35.6569 34 34 34H28Z" fill="#0045E6"/>
<path fillRule="evenodd" clipRule="evenodd" d="M18.3602 42.8333C17.954 43.4636 17.3682 44 16.5 44V43C16.8818 43 17.2008 42.7863 17.5196 42.2917C17.8446 41.7873 18.099 41.0955 18.3682 40.3334C18.3834 40.2903 18.3987 40.2469 18.4141 40.2033C18.6591 39.5081 18.9224 38.7611 19.2642 38.183C19.6277 37.568 20.1667 36.9999 21 36.9999C21.7797 36.9999 22.3485 37.4406 22.7629 37.9746C23.1711 38.5006 23.4814 39.1813 23.7457 39.8047C23.804 39.9424 23.86 40.0767 23.9143 40.2071C24.1173 40.6947 24.2974 41.1272 24.4939 41.47C24.7624 41.9384 24.9304 41.9999 25 41.9999C25.3167 41.9999 25.5321 41.9477 25.6916 41.8816C25.8535 41.8146 25.9821 41.7239 26.1252 41.6095C26.1529 41.5872 26.1819 41.5633 26.2123 41.5382C26.4828 41.3145 26.8634 40.9999 27.5 40.9999C28.093 40.9999 28.5611 41.2739 28.9324 41.4913C28.9765 41.5171 29.0192 41.5421 29.0606 41.5658C29.4705 41.8 29.8793 41.9999 30.5 41.9999C30.6774 41.9999 30.8304 41.9224 31.0065 41.711C31.1964 41.4832 31.3582 41.1654 31.5528 40.7763L31.5664 40.7491C31.7439 40.3939 31.9533 39.9749 32.2253 39.6485C32.5179 39.2974 32.9274 38.9999 33.5 38.9999C34.0866 38.9999 34.4894 39.3209 34.7669 39.6891C35.0119 40.0144 35.1992 40.43 35.3599 40.7865C35.3714 40.812 35.3827 40.8372 35.394 40.8621C35.5762 41.2651 35.7334 41.5943 35.9261 41.8284C36.1015 42.0415 36.2728 42.1363 36.5 42.1363C36.6638 42.1363 36.8312 42.0503 37.0411 41.7207C37.236 41.4145 37.3976 41.0078 37.5866 40.5317C37.6063 40.4823 37.6262 40.4321 37.6465 40.3811C37.8496 39.8719 38.0896 39.292 38.43 38.8424C38.7848 38.3739 39.2872 37.9983 40.0011 37.9999C40.7815 38.0017 41.2317 38.5112 41.5131 39.0525C41.7117 39.4345 41.8706 39.9209 42.0211 40.3816C42.0723 40.5384 42.1226 40.6922 42.1731 40.8379C42.3868 41.4545 42.6225 41.9947 42.976 42.3826C43.3075 42.7462 43.7645 43 44.5 43V44C43.4855 44 42.7594 43.6294 42.237 43.0562C41.7366 42.5073 41.4476 41.7983 41.2282 41.1654C41.161 40.9714 41.1009 40.7877 41.0442 40.6143C40.9036 40.184 40.7837 39.8173 40.6259 39.5138C40.4196 39.117 40.236 39.0004 39.9989 38.9999C39.6953 38.9992 39.4594 39.1394 39.2272 39.4461C38.9807 39.7717 38.7849 40.2262 38.5754 40.7515C38.5547 40.8035 38.5337 40.8564 38.5126 40.9099C38.3326 41.3646 38.1343 41.8657 37.8846 42.2579C37.6001 42.7046 37.1683 43.1363 36.5 43.1363C35.895 43.1363 35.4628 42.839 35.154 42.464C34.8626 42.11 34.655 41.6551 34.4828 41.274L34.4677 41.2408C34.2885 40.8442 34.1437 40.5238 33.9682 40.2908C33.8025 40.071 33.6634 39.9999 33.5 39.9999C33.3226 39.9999 33.1696 40.0774 32.9935 40.2887C32.8036 40.5166 32.6418 40.8343 32.4472 41.2235L32.4336 41.2506C32.2561 41.6058 32.0467 42.0249 31.7747 42.3512C31.4821 42.7024 31.0726 42.9999 30.5 42.9999C29.6207 42.9999 29.0295 42.6998 28.5644 42.434C28.5243 42.4111 28.4859 42.389 28.4489 42.3677C28.0387 42.132 27.8088 41.9999 27.5 41.9999C27.2342 41.9999 27.1203 42.0918 26.8382 42.3193C26.8105 42.3416 26.7811 42.3653 26.7498 42.3903C26.5804 42.5259 26.3652 42.6851 26.074 42.8056C25.7804 42.9271 25.4333 43 25 43C24.3196 43 23.8952 42.4364 23.6263 41.9673C23.3952 41.564 23.1825 41.0526 22.9767 40.5575C22.9258 40.4351 22.8753 40.3136 22.825 40.195C22.5594 39.5685 22.2923 38.9992 21.9729 38.5877C21.6597 38.1841 21.3508 37.9999 21 37.9999C20.7028 37.9999 20.4266 38.1818 20.125 38.6919C19.8349 39.1826 19.6016 39.8435 19.3427 40.5769C19.3322 40.6066 19.3217 40.6365 19.3111 40.6665C19.0504 41.4044 18.76 42.2127 18.3602 42.8333Z" fill="#0045E6"/>
<path d="M35 37.5C35 38.3284 34.3284 38.9999 33.5 38.9999C32.6716 38.9999 32 38.3284 32 37.5C32 36.6716 32.6716 36 33.5 36C34.3284 36 35 36.6716 35 37.5Z" fill="#C2D4FF"/>
<path fillRule="evenodd" clipRule="evenodd" d="M33.5 38C33.7761 38 34 37.7761 34 37.5C34 37.2239 33.7761 37 33.5 37C33.2239 37 33 37.2239 33 37.5C33 37.7761 33.2239 38 33.5 38ZM33.5 38.9999C34.3284 38.9999 35 38.3284 35 37.5C35 36.6716 34.3284 36 33.5 36C32.6716 36 32 36.6716 32 37.5C32 38.3284 32.6716 38.9999 33.5 38.9999Z" fill="#0045E6"/>
<path fillRule="evenodd" clipRule="evenodd" d="M18.0023 47.0005H43C43.5523 47.0005 44 46.5528 44 46.0005V17.0023C44 16.4501 43.5523 16.0023 43 16.0023H18.0023C17.45 16.0023 17.0023 16.4501 17.0023 17.0023V46.0005C17.0023 46.5528 17.45 47.0005 18.0023 47.0005ZM43 48.0005H18.0023C16.8977 48.0005 16.0023 47.1051 16.0023 46.0005V17.0023C16.0023 15.8978 16.8977 15.0023 18.0023 15.0023H43C44.1046 15.0023 45 15.8978 45 17.0023V46.0005C45 47.1051 44.1046 48.0005 43 48.0005Z" fill="#0045E6"/>
<path fillRule="evenodd" clipRule="evenodd" d="M10.5 37.0005C9.67157 37.0005 9 36.3289 9 35.5005V10.5005C9 9.67206 9.67157 9.00049 10.5 9.00049H45.5C46.3284 9.00049 47 9.67206 47 10.5005V35.5005C47 36.3289 46.3284 37.0005 45.5 37.0005H44V38.0005H45.5C46.8807 38.0005 48 36.8812 48 35.5005V10.5005C48 9.11978 46.8807 8.00049 45.5 8.00049H10.5C9.11929 8.00049 8 9.11978 8 10.5005V35.5005C8 36.8812 9.11929 38.0005 10.5 38.0005H16.5V37.0005H10.5Z" fill="#0045E6"/>
<path d="M12 10.5005C12 10.7766 11.7761 11.0005 11.5 11.0005C11.2239 11.0005 11 10.7766 11 10.5005C11 10.2243 11.2239 10.0005 11.5 10.0005C11.7761 10.0005 12 10.2243 12 10.5005Z" fill="#0045E6"/>
<path d="M14 10.5005C14 10.7766 13.7761 11.0005 13.5 11.0005C13.2239 11.0005 13 10.7766 13 10.5005C13 10.2243 13.2239 10.0005 13.5 10.0005C13.7761 10.0005 14 10.2243 14 10.5005Z" fill="#0045E6"/>
<path d="M16 10.5005C16 10.7766 15.7761 11.0005 15.5 11.0005C15.2239 11.0005 15 10.7766 15 10.5005C15 10.2243 15.2239 10.0005 15.5 10.0005C15.7761 10.0005 16 10.2243 16 10.5005Z" fill="#0045E6"/>
<path fillRule="evenodd" clipRule="evenodd" d="M8 12.0005L48 12.0005V13.0005L8 13.0005L8 12.0005Z" fill="#0045E6"/>
<path d="M20 29.5003C20 29.7765 20.2239 30.0003 20.5 30.0003C20.7761 30.0003 21 29.7765 21 29.5003V25.5003C21 25.2242 20.7761 25.0003 20.5 25.0003C20.2239 25.0003 20 25.2242 20 25.5003V29.5003Z" fill="#0045E6"/>
<path d="M18 29.5005C18 29.7766 18.2239 30.0005 18.5 30.0005C18.7761 30.0005 19 29.7766 19 29.5005V27.5005C19 27.2243 18.7761 27.0005 18.5 27.0005C18.2239 27.0005 18 27.2243 18 27.5005V29.5005Z" fill="#0045E6"/>
<path d="M42 29.5005C42 29.7766 42.2239 30.0005 42.5 30.0005C42.7761 30.0005 43 29.7766 43 29.5005V27.5005C43 27.2243 42.7761 27.0005 42.5 27.0005C42.2239 27.0005 42 27.2243 42 27.5005V29.5005Z" fill="#0045E6"/>
<path d="M28 29.5003C28 29.7765 28.2239 30.0003 28.5 30.0003C28.7761 30.0003 29 29.7765 29 29.5003V22.5005C29 22.2243 28.7761 22.0005 28.5 22.0005C28.2239 22.0005 28 22.2243 28 22.5005V29.5003Z" fill="#0045E6"/>
<path d="M26 29.5003C26 29.7765 26.2239 30.0003 26.5 30.0003C26.7761 30.0003 27 29.7765 27 29.5003V24.5003C27 24.2242 26.7761 24.0003 26.5 24.0003C26.2239 24.0003 26 24.2242 26 24.5003V29.5003Z" fill="#0045E6"/>
<path d="M22 29.5003C22 29.7765 22.2239 30.0003 22.5 30.0003C22.7761 30.0003 23 29.7765 23 29.5003V23.5003C23 23.2242 22.7761 23.0003 22.5 23.0003C22.2239 23.0003 22 23.2242 22 23.5003V29.5003Z" fill="#0045E6"/>
<path d="M30 29.5003C30 29.7765 30.2239 30.0003 30.5 30.0003C30.7761 30.0003 31 29.7765 31 29.5003V25.5003C31 25.2242 30.7761 25.0003 30.5 25.0003C30.2239 25.0003 30 25.2242 30 25.5003V29.5003Z" fill="#0045E6"/>
<path d="M24 29.5C24 29.7761 24.2239 30 24.5 30C24.7761 30 25 29.7761 25 29.5V27.5C25 27.2239 24.7761 27 24.5 27C24.2239 27 24 27.2239 24 27.5V29.5Z" fill="#0045E6"/>
<path d="M36 29.5011C36 29.7773 36.2239 30.0011 36.5 30.0011C36.7761 30.0011 37 29.7773 37 29.5011V26.5011C37 26.225 36.7761 26.0011 36.5 26.0011C36.2239 26.0011 36 26.225 36 26.5011V29.5011Z" fill="#0045E6"/>
<path d="M32 29.5024C32 29.7785 32.2239 30.0024 32.5 30.0024C32.7761 30.0024 33 29.7785 33 29.5024V24.5011C33 24.225 32.7761 24.0011 32.5 24.0011C32.2239 24.0011 32 24.225 32 24.5011V29.5024Z" fill="#0045E6"/>
<path d="M34 29.5011C34 29.7773 34.2239 30.0011 34.5 30.0011C34.7761 30.0011 35 29.7773 35 29.5011V28.5011C35 28.225 34.7761 28.0011 34.5 28.0011C34.2239 28.0011 34 28.225 34 28.5011V29.5011Z" fill="#0045E6"/>
<path d="M38 29.5025C38 29.7786 38.2239 30.0025 38.5 30.0025C38.7761 30.0025 39 29.7786 39 29.5025V23.5012C39 23.2251 38.7761 23.0012 38.5 23.0012C38.2239 23.0012 38 23.2251 38 23.5012V29.5025Z" fill="#0045E6"/>
<path d="M40 29.5012C40 29.7774 40.2239 30.0012 40.5 30.0012C40.7761 30.0012 41 29.7774 41 29.5012V25.5012C41 25.2251 40.7761 25.0012 40.5 25.0012C40.2239 25.0012 40 25.2251 40 25.5012V29.5012Z" fill="#0045E6"/>
<path fillRule="evenodd" clipRule="evenodd" d="M41.5 18.0005H34.5C34.2239 18.0005 34 18.2243 34 18.5005C34 18.7766 34.2239 19.0005 34.5 19.0005H41.5C41.7761 19.0005 42 18.7766 42 18.5005C42 18.2243 41.7761 18.0005 41.5 18.0005ZM34.5 17.0005C33.6716 17.0005 33 17.6721 33 18.5005C33 19.3289 33.6716 20.0005 34.5 20.0005H41.5C42.3284 20.0005 43 19.3289 43 18.5005C43 17.6721 42.3284 17.0005 41.5 17.0005H34.5Z" fill="#0045E6"/>
<path fillRule="evenodd" clipRule="evenodd" d="M15.9999 18.0011L10.9999 18.0005L11.0001 17.0005L16.0001 17.0011L15.9999 18.0011ZM14 19.9999H11V18.9999H14V19.9999Z" fill="#0045E6"/>
</svg>
